<svg width="40" height="40" viewBox="0 0 40 40" fill="none" xmlns="http://www.w3.org/2000/svg">
<path fill-rule="evenodd" clip-rule="evenodd" d="M12.5332 0.223426C14.5689 -0.688774 16.3324 1.37184 15.6956 3.16098C13.5347 9.23178 14.8624 16.1269 19.3476 20.6103C23.8556 25.1167 30.7963 26.4412 36.8868 24.2416C38.659 23.6016 40.6637 25.3478 39.7876 27.335C39.7616 27.3938 39.7355 27.4523 39.7091 27.511C38.1498 30.9689 35.6553 34.2208 32.4281 36.4011C28.9883 38.725 24.9319 39.9666 20.7803 39.9666H20.7783C15.9506 39.9614 11.2749 38.2775 7.5529 35.2038C3.83085 32.13 1.2942 27.8576 0.377993 23.1189C-0.538209 18.3802 0.22314 13.4705 2.53147 9.23156C4.71976 5.213 8.39949 2.09014 12.4733 0.250337L12.5332 0.223426Z" fill="#555555"/>
</svg>
