<svg width="48" height="48" viewBox="0 0 48 48" fill="none" xmlns="http://www.w3.org/2000/svg">
<path d="M24.48 29.3161L14.975 38.8211L1.588 25.4341C0.804 24.6501 0.804 23.3801 1.588 22.5961L8.255 15.9291C9.039 15.1451 10.309 15.1451 11.093 15.9291L24.48 29.3161Z" fill="#8549BF"/>
<path d="M17.797 41.642L11.13 34.975C10.346 34.191 10.346 32.921 11.13 32.137L36.907 6.35802C37.691 5.57402 38.961 5.57402 39.745 6.35802L46.412 13.025C47.196 13.809 47.196 15.079 46.412 15.863L20.634 41.642C19.851 42.425 18.58 42.425 17.797 41.642Z" fill="url(#paint0_linear_210_749)"/>
<defs>
<linearGradient id="paint0_linear_210_749" x1="14.572" y1="38.199" x2="43.188" y2="9.58302" gradientUnits="userSpaceOnUse">
<stop stop-color="#A370D8"/>
<stop offset="1" stop-color="#C6AFDE"/>
</linearGradient>
</defs>
</svg>
